<svg width="335" height="307" viewBox="0 0 335 307" fill="none" xmlns="http://www.w3.org/2000/svg">
<g opacity="0.24">
<rect width="107.875" height="94.5756" transform="matrix(0.998673 0.0515075 -0.0823075 0.996607 -6.06836 188.76)" fill="url(#paint0_linear_14_46)" fill-opacity="0.5"/>
<rect width="107.875" height="94.5756" transform="matrix(-0.998673 -0.0515075 0.0823075 -0.996607 309.343 299.684)" fill="url(#paint1_linear_14_46)" fill-opacity="0.5"/>
<path d="M101.665 194.315L217.181 105.617L209.397 199.872L93.881 288.57L101.665 194.315Z" fill="url(#paint2_linear_14_46)" fill-opacity="0.5"/>
<path d="M201.612 294.127L86.0957 382.825L93.88 288.57L209.396 199.872L201.612 294.127Z" fill="url(#paint3_linear_14_46)" fill-opacity="0.5"/>
<path d="M-6.06807 188.759L224.964 11.3627L217.18 105.617L101.664 194.316L-6.06807 188.759Z" fill="url(#paint4_linear_14_46)" fill-opacity="0.5"/>
<path d="M309.343 299.684L78.3108 477.081L86.0951 382.826L201.611 294.128L309.343 299.684Z" fill="url(#paint5_linear_14_46)" fill-opacity="0.5"/>
</g>
<defs>
<linearGradient id="paint0_linear_14_46" x1="53.9375" y1="0" x2="53.9375" y2="94.5756" gradientUnits="userSpaceOnUse">
<stop offset="0.365" stop-color="#C5C5C5"/>
<stop offset="0.96" stop-color="white" stop-opacity="0"/>
</linearGradient>
<linearGradient id="paint1_linear_14_46" x1="53.9376" y1="0" x2="53.9376" y2="94.5756" gradientUnits="userSpaceOnUse">
<stop offset="0.365" stop-color="#C5C5C5"/>
<stop offset="0.96" stop-color="white" stop-opacity="0"/>
</linearGradient>
<linearGradient id="paint2_linear_14_46" x1="163.316" y1="102.839" x2="153.577" y2="291.649" gradientUnits="userSpaceOnUse">
<stop offset="0.365" stop-color="#C5C5C5"/>
<stop offset="0.96" stop-color="white" stop-opacity="0"/>
</linearGradient>
<linearGradient id="paint3_linear_14_46" x1="139.962" y1="385.603" x2="149.7" y2="196.793" gradientUnits="userSpaceOnUse">
<stop offset="0.365" stop-color="#C5C5C5"/>
<stop offset="0.96" stop-color="white" stop-opacity="0"/>
</linearGradient>
<linearGradient id="paint4_linear_14_46" x1="117.232" y1="5.80637" x2="107.494" y2="194.616" gradientUnits="userSpaceOnUse">
<stop offset="0.365" stop-color="#C5C5C5"/>
<stop offset="0.96" stop-color="white" stop-opacity="0"/>
</linearGradient>
<linearGradient id="paint5_linear_14_46" x1="186.043" y1="482.637" x2="195.781" y2="293.827" gradientUnits="userSpaceOnUse">
<stop offset="0.365" stop-color="#C5C5C5"/>
<stop offset="0.96" stop-color="white" stop-opacity="0"/>
</linearGradient>
</defs>
</svg>
