<svg width="14" height="18" viewBox="0 0 14 18" fill="none" xmlns="http://www.w3.org/2000/svg">
<path d="M6.99989 0.333332C6.69047 0.333332 6.39373 0.456248 6.17493 0.675041C5.95614 0.893833 5.83322 1.19058 5.83322 1.5V13.855L1.99489 10.005C1.7752 9.78531 1.47724 9.66189 1.16656 9.66189C0.855872 9.66189 0.557912 9.78531 0.338224 10.005C0.118537 10.2247 -0.00488281 10.5226 -0.00488281 10.8333C-0.00488282 11.144 0.118537 11.442 0.338224 11.6617L6.17156 17.495C6.28001 17.6043 6.40905 17.6911 6.55122 17.7504C6.69339 17.8096 6.84588 17.8401 6.99989 17.8401C7.1539 17.8401 7.30639 17.8096 7.44856 17.7504C7.59073 17.6911 7.71977 17.6043 7.82822 17.495L13.6616 11.6617C13.7703 11.5529 13.8566 11.4237 13.9155 11.2816C13.9744 11.1395 14.0047 10.9872 14.0047 10.8333C14.0047 10.6795 13.9744 10.5272 13.9155 10.385C13.8566 10.2429 13.7703 10.1138 13.6616 10.005C13.5528 9.89622 13.4236 9.80993 13.2815 9.75106C13.1394 9.69219 12.9871 9.66189 12.8332 9.66189C12.6794 9.66189 12.5271 9.69219 12.3849 9.75106C12.2428 9.80993 12.1137 9.89622 12.0049 10.005L8.16656 13.855V1.5C8.16656 1.19058 8.04364 0.893833 7.82485 0.675041C7.60606 0.456248 7.30931 0.333332 6.99989 0.333332Z" fill="black"/>
</svg>
